<?xml version="1.0" encoding="UTF-8"?>
<!DOCTYPE svg PUBLIC "-//W3C//DTD SVG 1.1//EN" "http://www.w3.org/Graphics/SVG/1.1/DTD/svg11.dtd">
<svg xmlns="http://www.w3.org/2000/svg" version="1.1" width="2400px" height="758px" style="shape-rendering:geometricPrecision; text-rendering:geometricPrecision; image-rendering:optimizeQuality; fill-rule:evenodd; clip-rule:evenodd" xmlns:xlink="http://www.w3.org/1999/xlink">
<g><path style="opacity:0.071" fill="#00fec5" d="M -0.5,-0.5 C 799.5,-0.5 1599.5,-0.5 2399.5,-0.5C 2399.5,252.167 2399.5,504.833 2399.5,757.5C 1599.5,757.5 799.5,757.5 -0.5,757.5C -0.5,504.833 -0.5,252.167 -0.5,-0.5 Z M 955.5,374.5 C 955.33,327.162 955.664,279.828 956.5,232.5C 956.5,230.833 956.5,229.167 956.5,227.5C 977.173,226.12 997.84,226.286 1018.5,228C 1024.95,230.254 1031.61,231.92 1038.5,233C 1042.08,235.568 1046.08,237.235 1050.5,238C 1056.83,242.658 1062.99,247.491 1069,252.5C 1075.19,261.074 1079.86,270.408 1083,280.5C 1084.28,290.768 1085.44,300.934 1086.5,311C 1085.87,342.774 1072.54,367.608 1046.5,385.5C 1042.09,386.54 1038.09,388.373 1034.5,391C 1008.19,394.934 981.852,397.1 955.5,397.5C 955.5,389.833 955.5,382.167 955.5,374.5 Z M 232.5,230.5 C 248.333,230.496 263.5,233.496 278,239.5C 282.999,243.005 287.832,246.672 292.5,250.5C 295.563,254.566 299.229,257.899 303.5,260.5C 304.01,263.674 305.677,266.008 308.5,267.5C 312.688,274.082 316.688,280.748 320.5,287.5C 320.34,289.199 320.506,290.866 321,292.5C 321.896,295.082 323.229,297.416 325,299.5C 332.983,329.641 337.316,360.308 338,391.5C 338.829,420.201 338.163,448.867 336,477.5C 333.949,493.047 330.615,508.38 326,523.5C 322.727,531.978 319.06,540.311 315,548.5C 311.195,552.15 308.362,556.483 306.5,561.5C 299.94,566.568 293.94,572.068 288.5,578C 269.437,590.184 248.437,596.684 225.5,597.5C 224.167,597.5 222.833,597.5 221.5,597.5C 210.5,597.5 199.5,597.5 188.5,597.5C 188.5,475.167 188.5,352.833 188.5,230.5C 203.167,230.5 217.833,230.5 232.5,230.5 Z"/></g>
<g><path style="opacity:0.997" fill="#365b64" d="M 1859.5,280.5 C 1859.74,290.72 1860.74,300.72 1862.5,310.5C 1863.27,332.817 1863.77,355.15 1864,377.5C 1886.01,399.51 1907.34,422.177 1928,445.5C 1928.92,447.034 1929.42,448.701 1929.5,450.5C 1914.95,493.568 1900.12,536.568 1885,579.5C 1882.34,583.504 1878.68,585.837 1874,586.5C 1872.77,586.355 1871.61,586.022 1870.5,585.5C 1864.05,577.173 1858.72,568.173 1854.5,558.5C 1843.84,547.008 1833.34,535.342 1823,523.5C 1817.31,520.547 1811.48,517.88 1805.5,515.5C 1804.42,516.365 1804.25,517.365 1805,518.5C 1816.04,533.575 1824.7,549.909 1831,567.5C 1836.05,587.477 1830.55,591.311 1814.5,579C 1808.18,573.02 1803.02,566.186 1799,558.5C 1797.87,556.789 1796.37,556.289 1794.5,557C 1792.56,559.47 1791.4,562.304 1791,565.5C 1787.17,584.616 1784.17,603.949 1782,623.5C 1780.75,626.361 1779.75,629.361 1779,632.5C 1777.11,634.922 1775.11,634.922 1773,632.5C 1768.28,620.058 1763.28,607.725 1758,595.5C 1756.13,591.724 1753.79,588.391 1751,585.5C 1750.23,585.645 1749.56,585.978 1749,586.5C 1744.99,597.852 1740.99,609.185 1737,620.5C 1735.32,623.513 1732.99,625.846 1730,627.5C 1727.96,625.458 1726.3,623.125 1725,620.5C 1723.73,611.456 1722.23,602.456 1720.5,593.5C 1717.63,588.561 1713.3,585.895 1707.5,585.5C 1696.8,588.183 1686.8,592.516 1677.5,598.5C 1676.52,598.023 1675.69,597.357 1675,596.5C 1675.56,589.823 1676.56,583.156 1678,576.5C 1683.56,554.856 1689.06,533.189 1694.5,511.5C 1685.29,512.8 1676.62,515.633 1668.5,520C 1655.96,536.197 1643.12,552.03 1630,567.5C 1626.83,570 1624,572.833 1621.5,576C 1619.57,576.138 1617.73,575.638 1616,574.5C 1597.09,531.035 1578.93,487.202 1561.5,443C 1563.96,438.59 1566.79,434.424 1570,430.5C 1584.23,414.657 1598.9,399.324 1614,384.5C 1617.5,380.853 1620.34,376.853 1622.5,372.5C 1623.12,372.389 1623.62,372.056 1624,371.5C 1624.5,356.17 1624.67,340.837 1624.5,325.5C 1628.89,262.245 1646.72,203.245 1678,148.5C 1687.65,132.533 1697.32,116.533 1707,100.5C 1722.22,82.106 1738.05,64.106 1754.5,46.5C 1761.71,51.205 1768.21,56.8717 1774,63.5C 1815.44,119.405 1842.44,181.738 1855,250.5C 1856.37,260.569 1857.87,270.569 1859.5,280.5 Z"/></g>
<g><path style="opacity:1" fill="#06f6c4" d="M 1837.5,237.5 C 1837.34,240.187 1837.5,242.854 1838,245.5C 1838.1,247.653 1838.93,249.319 1840.5,250.5C 1841.6,255.773 1842.27,261.106 1842.5,266.5C 1843.05,275.417 1844.38,284.084 1846.5,292.5C 1846.5,293.833 1846.5,295.167 1846.5,296.5C 1848.66,323.476 1848.99,350.476 1847.5,377.5C 1847.5,379.5 1847.5,381.5 1847.5,383.5C 1845.65,392.594 1844.65,401.927 1844.5,411.5C 1842.52,423.319 1840.85,435.319 1839.5,447.5C 1838.78,447.918 1838.28,448.584 1838,449.5C 1837.06,454.827 1836.22,460.16 1835.5,465.5C 1832.08,479.905 1828.25,494.238 1824,508.5C 1819.17,509.235 1814.67,508.068 1810.5,505C 1806.42,504.47 1802.42,503.637 1798.5,502.5C 1798.39,501.883 1798.06,501.383 1797.5,501C 1791.84,500.025 1786.18,499.192 1780.5,498.5C 1779.5,498.5 1778.5,498.5 1777.5,498.5C 1777.5,494.833 1777.5,491.167 1777.5,487.5C 1778.96,482.402 1779.62,477.069 1779.5,471.5C 1780.63,460.67 1781.96,450.003 1783.5,439.5C 1786.25,430.285 1786.91,420.951 1785.5,411.5C 1783.29,403.597 1781.29,395.597 1779.5,387.5C 1776.88,382.015 1774.71,376.349 1773,370.5C 1769.81,365.814 1765.31,363.481 1759.5,363.5C 1751.62,361.322 1743.46,359.989 1735,359.5C 1733.17,359.667 1731.33,359.833 1729.5,360C 1728.75,360.671 1728.41,361.504 1728.5,362.5C 1727.51,363.795 1726.51,365.128 1725.5,366.5C 1722.97,394.287 1721.64,422.287 1721.5,450.5C 1721.5,455.167 1721.5,459.833 1721.5,464.5C 1720.51,474.319 1720.17,484.319 1720.5,494.5C 1712.15,494.835 1703.81,495.502 1695.5,496.5C 1693.36,496.556 1691.69,497.223 1690.5,498.5C 1683.71,498.219 1677.54,499.885 1672,503.5C 1668.89,502.218 1667.06,499.885 1666.5,496.5C 1665.57,491.992 1663.9,487.992 1661.5,484.5C 1652.51,459.562 1646.18,433.895 1642.5,407.5C 1641.65,399.288 1640.31,391.288 1638.5,383.5C 1638.5,377.5 1638.5,371.5 1638.5,365.5C 1638.46,348.158 1638.8,330.824 1639.5,313.5C 1639.5,312.5 1639.5,311.5 1639.5,310.5C 1641.14,306.79 1641.8,302.79 1641.5,298.5C 1642.07,293.817 1642.74,289.15 1643.5,284.5C 1645.87,279.911 1646.87,274.911 1646.5,269.5C 1649.22,256.298 1652.72,243.298 1657,230.5C 1660.23,221.639 1663.73,212.973 1667.5,204.5C 1669.92,200.936 1671.59,196.936 1672.5,192.5C 1693.45,146.079 1720.78,103.912 1754.5,66C 1755.83,65.3333 1757.17,65.3333 1758.5,66C 1797.42,117.381 1823.76,174.548 1837.5,237.5 Z"/></g>
<g><path style="opacity:0.208" fill="#aafeeb" d="M 791.5,166.5 C 734.998,166.168 678.664,166.501 622.5,167.5C 606.325,167.83 590.325,167.496 574.5,166.5C 646.833,165.167 719.167,165.167 791.5,166.5 Z"/></g>
<g><path style="opacity:0.2" fill="#a3fde9" d="M 861.5,166.5 C 898.996,165.502 936.663,165.168 974.5,165.5C 976.292,166.309 978.292,166.809 980.5,167C 967.171,167.5 953.837,167.667 940.5,167.5C 914.339,166.502 888.005,166.169 861.5,166.5 Z"/></g>
<g><path style="opacity:0.171" fill="#95fee6" d="M 1976.5,166.5 C 1994.99,165.503 2013.66,165.17 2032.5,165.5C 2033.61,166.29 2034.94,166.79 2036.5,167C 2033.18,167.498 2029.85,167.665 2026.5,167.5C 2010.01,166.503 1993.34,166.17 1976.5,166.5 Z"/></g>
<g><path style="opacity:0.2" fill="#a6feeb" d="M 2258.5,165.5 C 2277.67,165.17 2296.67,165.503 2315.5,166.5C 2297.33,166.17 2279.33,166.503 2261.5,167.5C 2259.47,167.662 2257.47,167.495 2255.5,167C 2256.74,166.768 2257.74,166.268 2258.5,165.5 Z"/></g>
<g><path style="opacity:0.998" fill="#15edba" d="M 95.5,165.5 C 147.258,165.711 198.924,165.711 250.5,165.5C 311.194,167.808 358.361,193.474 392,242.5C 397.679,252.849 403.346,263.182 409,273.5C 420.374,299.523 427.874,326.357 431.5,354C 436.608,391.754 436.775,429.588 432,467.5C 427.565,496.296 420.232,524.629 410,552.5C 389.267,599.242 355.767,632.076 309.5,651C 284.924,657.697 259.924,661.864 234.5,663.5C 188.221,663.696 141.554,663.196 94.5,662C 96.3007,644.106 97.4674,625.606 98,606.5C 98.6667,474.5 98.6667,342.5 98,210.5C 97.688,198.436 96.8547,186.436 95.5,174.5C 95.7093,173.914 96.0426,173.414 96.5,173C 94.7382,170.597 94.4048,168.097 95.5,165.5 Z M 232.5,230.5 C 248.333,230.496 263.5,233.496 278,239.5C 282.999,243.005 287.832,246.672 292.5,250.5C 295.563,254.566 299.229,257.899 303.5,260.5C 304.01,263.674 305.677,266.008 308.5,267.5C 312.688,274.082 316.688,280.748 320.5,287.5C 320.34,289.199 320.506,290.866 321,292.5C 321.896,295.082 323.229,297.416 325,299.5C 332.983,329.641 337.316,360.308 338,391.5C 338.829,420.201 338.163,448.867 336,477.5C 333.949,493.047 330.615,508.38 326,523.5C 322.727,531.978 319.06,540.311 315,548.5C 311.195,552.15 308.362,556.483 306.5,561.5C 299.94,566.568 293.94,572.068 288.5,578C 269.437,590.184 248.437,596.684 225.5,597.5C 224.167,597.5 222.833,597.5 221.5,597.5C 210.5,597.5 199.5,597.5 188.5,597.5C 188.5,475.167 188.5,352.833 188.5,230.5C 203.167,230.5 217.833,230.5 232.5,230.5 Z"/></g>
<g><path style="opacity:0.533" fill="#d2fdf2" d="M 622.5,167.5 C 678.664,166.501 734.998,166.168 791.5,166.5C 791.5,185.167 791.5,203.833 791.5,222.5C 790.833,204.5 790.167,186.5 789.5,168.5C 734.002,167.501 678.336,167.168 622.5,167.5 Z"/></g>
<g><path style="opacity:0.335" fill="#c4fef0" d="M 1976.5,166.5 C 1993.34,166.17 2010.01,166.503 2026.5,167.5C 2002.83,167.887 1979.17,168.221 1955.5,168.5C 1955.61,167.883 1955.94,167.383 1956.5,167C 1963.16,166.5 1969.83,166.334 1976.5,166.5 Z"/></g>
<g><path style="opacity:0.493" fill="#e4fef7" d="M 2261.5,167.5 C 2279.33,166.503 2297.33,166.17 2315.5,166.5C 2315.5,167.5 2315.5,168.5 2315.5,169.5C 2297.5,168.778 2279.5,168.111 2261.5,167.5 Z"/></g>
<g><path style="opacity:0.694" fill="#61f3d1" d="M 565.5,166.5 C 568.5,166.5 571.5,166.5 574.5,166.5C 590.325,167.496 606.325,167.83 622.5,167.5C 678.336,167.168 734.002,167.501 789.5,168.5C 710.166,168.667 630.833,168.5 551.5,168C 556.351,167.826 561.018,167.326 565.5,166.5 Z"/></g>
<g><path style="opacity:0.752" fill="#f0fdfa" d="M 861.5,166.5 C 888.005,166.169 914.339,166.502 940.5,167.5C 914.168,168.214 887.835,168.881 861.5,169.5C 860.167,168.5 860.167,167.5 861.5,166.5 Z"/></g>
<g><path style="opacity:0.998" fill="#15edba" d="M 974.5,165.5 C 980.518,165.947 986.518,166.614 992.5,167.5C 1010.03,167.794 1027.53,167.46 1045,166.5C 1045.5,167 1046,167.5 1046.5,168C 1064.06,168.748 1080.22,172.248 1095,178.5C 1095.33,178.167 1095.67,177.833 1096,177.5C 1105.25,181.544 1114.42,185.71 1123.5,190C 1129.93,196.489 1136.76,202.656 1144,208.5C 1154.66,221.705 1163.66,236.038 1171,251.5C 1183.3,288.392 1183.64,325.725 1172,363.5C 1162.8,386.87 1149.3,406.704 1131.5,423C 1123,428.416 1114.67,434.083 1106.5,440C 1103.17,441 1099.83,442 1096.5,443C 1095.33,443.5 1094.5,444.333 1094,445.5C 1092.41,444.273 1091.08,444.606 1090,446.5C 1089.67,446.167 1089.33,445.833 1089,445.5C 1080.96,447.913 1072.96,450.58 1065,453.5C 1064.59,453.043 1064.09,452.709 1063.5,452.5C 1039.18,458.471 1014.51,460.804 989.5,459.5C 977.431,458.17 965.265,458.17 953,459.5C 952.395,502.506 952.728,545.506 954,588.5C 954.186,591.036 954.686,593.369 955.5,595.5C 955.077,596.265 954.743,597.098 954.5,598C 955.488,617.484 956.488,636.984 957.5,656.5C 956.566,657.568 956.232,658.901 956.5,660.5C 929.498,660.333 902.498,660.5 875.5,661C 878.036,661.186 880.369,661.686 882.5,662.5C 875.986,662.4 869.652,662.4 863.5,662.5C 861.154,660.763 860.154,658.43 860.5,655.5C 861.09,650.509 861.59,645.509 862,640.5C 862.374,639.584 862.874,638.75 863.5,638C 863.591,633.445 863.257,629.111 862.5,625C 863,624.5 863.5,624 864,623.5C 864.333,616.5 864.667,609.5 865,602.5C 865.667,477.5 865.667,352.5 865,227.5C 864.667,218.833 864.333,210.167 864,201.5C 863.626,200.584 863.126,199.75 862.5,199C 862.262,193.03 862.595,187.03 863.5,181C 861.623,177.506 860.956,173.673 861.5,169.5C 887.835,168.881 914.168,168.214 940.5,167.5C 953.837,167.667 967.171,167.5 980.5,167C 978.292,166.809 976.292,166.309 974.5,165.5 Z M 955.5,374.5 C 955.33,327.162 955.664,279.828 956.5,232.5C 956.5,230.833 956.5,229.167 956.5,227.5C 977.173,226.12 997.84,226.286 1018.5,228C 1024.95,230.254 1031.61,231.92 1038.5,233C 1042.08,235.568 1046.08,237.235 1050.5,238C 1056.83,242.658 1062.99,247.491 1069,252.5C 1075.19,261.074 1079.86,270.408 1083,280.5C 1084.28,290.768 1085.44,300.934 1086.5,311C 1085.87,342.774 1072.54,367.608 1046.5,385.5C 1042.09,386.54 1038.09,388.373 1034.5,391C 1008.19,394.934 981.852,397.1 955.5,397.5C 955.5,389.833 955.5,382.167 955.5,374.5 Z"/></g>
<g><path style="opacity:1" fill="#18edbb" d="M 1233.5,165.5 C 1265.5,165.5 1297.5,165.5 1329.5,165.5C 1328.72,179.817 1327.72,193.817 1326.5,207.5C 1326.83,208.167 1327.17,208.833 1327.5,209.5C 1326.82,239.141 1326.15,268.808 1325.5,298.5C 1325.86,397.515 1325.86,497.182 1325.5,597.5C 1363.18,597.701 1400.84,597.201 1438.5,596C 1461.5,594.027 1484.5,590.861 1507.5,586.5C 1507.8,610.852 1507.3,635.185 1506,659.5C 1505.63,660.416 1505.13,661.25 1504.5,662C 1501.18,662.608 1497.85,663.108 1494.5,663.5C 1427.42,663.37 1360.25,663.37 1293,663.5C 1272.94,662.895 1252.94,662.228 1233,661.5C 1232.69,651.916 1233.19,642.416 1234.5,633C 1234.17,632.667 1233.83,632.333 1233.5,632C 1235.03,630.352 1235.7,628.352 1235.5,626C 1234.61,618.619 1234.28,610.952 1234.5,603C 1235.23,601.601 1235.73,600.101 1236,598.5C 1236.17,539.833 1236.33,481.167 1236.5,422.5C 1236.16,362.989 1236.16,303.656 1236.5,244.5C 1235.93,242.941 1235.26,241.441 1234.5,240C 1234.51,230.167 1234.84,220.333 1235.5,210.5C 1233.85,208.598 1233.52,206.598 1234.5,204.5C 1233.5,195.167 1232.5,185.833 1231.5,176.5C 1230.96,172.763 1231.62,169.097 1233.5,165.5 Z"/></g>
<g><path style="opacity:1" fill="#13edba" d="M 565.5,166.5 C 561.018,167.326 556.351,167.826 551.5,168C 630.833,168.5 710.166,168.667 789.5,168.5C 790.167,186.5 790.833,204.5 791.5,222.5C 790.747,228.785 790.247,235.118 790,241.5C 775.053,237.985 759.886,235.485 744.5,234C 717.399,232.621 690.066,231.788 662.5,231.5C 655.167,230.833 647.833,230.167 640.5,229.5C 625.833,228.167 611.167,228.167 596.5,229.5C 595.336,263.664 595.169,297.998 596,332.5C 596.174,337.684 596.674,342.684 597.5,347.5C 597.833,347.5 598.167,347.5 598.5,347.5C 598.5,355.833 598.5,364.167 598.5,372.5C 625.03,372.061 651.197,372.061 677,372.5C 680,371.833 683,371.167 686,370.5C 686.333,370.833 686.667,371.167 687,371.5C 697.392,370.679 707.726,369.345 718,367.5C 718.333,367.833 718.667,368.167 719,368.5C 722.618,367.763 726.118,366.763 729.5,365.5C 729.5,392.833 729.5,420.167 729.5,447.5C 716.366,444.392 703.033,442.559 689.5,442C 659.168,441.5 628.835,441.333 598.5,441.5C 598.5,449.167 598.5,456.833 598.5,464.5C 597.505,475.654 597.172,486.988 597.5,498.5C 596.502,531.662 596.168,564.996 596.5,598.5C 619.006,598.831 641.34,598.497 663.5,597.5C 674.679,597.828 685.679,597.495 696.5,596.5C 719.357,596.499 742.024,595.999 764.5,595C 765,594.5 765.5,594 766,593.5C 770.833,594.376 775.5,594.376 780,593.5C 785.767,591.979 791.601,590.646 797.5,589.5C 798.192,590.025 798.692,590.692 799,591.5C 800.922,615.128 800.922,638.795 799,662.5C 798.667,662.167 798.333,661.833 798,661.5C 791.772,662.69 785.438,663.356 779,663.5C 687.977,663.475 596.81,663.475 505.5,663.5C 506.272,644.38 507.272,625.38 508.5,606.5C 507.631,602.722 507.298,599.055 507.5,595.5C 508.025,594.808 508.692,594.308 509.5,594C 509.136,483.846 509.136,373.513 509.5,263C 508.281,231.619 506.948,199.453 505.5,166.5C 525.5,166.5 545.5,166.5 565.5,166.5 Z"/></g>
<g><path style="opacity:1" fill="#19edbb" d="M 2032.5,165.5 C 2040.69,166.672 2048.69,167.672 2056.5,168.5C 2066.91,193.552 2077.41,218.552 2088,243.5C 2101.47,278.031 2115.97,311.364 2131.5,343.5C 2134.72,349.555 2137.72,355.722 2140.5,362C 2141.68,363.679 2143.02,365.179 2144.5,366.5C 2146.19,364.641 2147.69,362.641 2149,360.5C 2177.84,296.473 2205.34,231.806 2231.5,166.5C 2235.11,166.211 2238.61,166.544 2242,167.5C 2247.4,166.362 2252.9,165.696 2258.5,165.5C 2257.74,166.268 2256.74,166.768 2255.5,167C 2257.47,167.495 2259.47,167.662 2261.5,167.5C 2279.5,168.111 2297.5,168.778 2315.5,169.5C 2282.69,232.892 2250.52,296.225 2219,359.5C 2216.72,366.771 2213.55,373.604 2209.5,380C 2200.66,400.775 2191.16,421.608 2181,442.5C 2180.33,504.167 2180.33,565.833 2181,627.5C 2181.48,638.604 2182.65,649.604 2184.5,660.5C 2184.18,661.647 2183.52,662.481 2182.5,663C 2157.58,663.374 2132.91,663.54 2108.5,663.5C 2102.3,662.853 2096.14,662.186 2090,661.5C 2089.59,661.957 2089.09,662.291 2088.5,662.5C 2087.78,660.314 2087.11,658.147 2086.5,656C 2088.65,642.748 2089.98,629.415 2090.5,616C 2090.66,561.04 2090.49,505.873 2090,450.5C 2047.69,354.932 2002.85,260.932 1955.5,168.5C 1979.17,168.221 2002.83,167.887 2026.5,167.5C 2029.85,167.665 2033.18,167.498 2036.5,167C 2034.94,166.79 2033.61,166.29 2032.5,165.5 Z"/></g>
<g><path style="opacity:1" fill="#1dba9f" d="M 1672.5,192.5 C 1671.59,196.936 1669.92,200.936 1667.5,204.5C 1668.41,200.064 1670.08,196.064 1672.5,192.5 Z"/></g>
<g><path style="opacity:1" fill="#23a491" d="M 1753.5,211.5 C 1750.15,211.335 1746.82,211.502 1743.5,212C 1740.25,213.46 1736.92,214.626 1733.5,215.5C 1739.52,210.774 1746.19,209.441 1753.5,211.5 Z"/></g>
<g><path style="opacity:1" fill="#365c65" d="M 1753.5,211.5 C 1776.83,214.658 1791.67,227.658 1798,250.5C 1798.78,259.862 1798.61,269.195 1797.5,278.5C 1795.15,285.542 1791.98,292.209 1788,298.5C 1785.3,301.371 1782.46,304.038 1779.5,306.5C 1775.62,307.436 1772.29,309.103 1769.5,311.5C 1744.32,316.316 1724.49,308.316 1710,287.5C 1708.18,282.856 1706.68,278.19 1705.5,273.5C 1704.81,262.627 1705.81,251.96 1708.5,241.5C 1713.44,229.56 1721.77,220.893 1733.5,215.5C 1736.92,214.626 1740.25,213.46 1743.5,212C 1746.82,211.502 1750.15,211.335 1753.5,211.5 Z"/></g>
<g><path style="opacity:0.792" fill="#78f4d6" d="M 229.5,229.5 C 215.508,228.911 201.508,228.577 187.5,228.5C 187.5,351.833 187.5,475.167 187.5,598.5C 199.012,598.828 210.346,598.495 221.5,597.5C 222.833,597.5 224.167,597.5 225.5,597.5C 220.788,599.155 215.788,599.988 210.5,600C 202.254,600.815 194.088,600.648 186,599.5C 185.333,475.833 185.333,352.167 186,228.5C 200.628,227.116 215.128,227.45 229.5,229.5 Z"/></g>
<g><path style="opacity:0.302" fill="#93f7e0" d="M 229.5,229.5 C 230.791,229.263 231.791,229.596 232.5,230.5C 217.833,230.5 203.167,230.5 188.5,230.5C 188.5,352.833 188.5,475.167 188.5,597.5C 199.5,597.5 210.5,597.5 221.5,597.5C 210.346,598.495 199.012,598.828 187.5,598.5C 187.5,475.167 187.5,351.833 187.5,228.5C 201.508,228.577 215.508,228.911 229.5,229.5 Z"/></g>
<g><path style="opacity:0.306" fill="#c6feef" d="M 640.5,229.5 C 647.833,230.167 655.167,230.833 662.5,231.5C 641.167,231.5 619.833,231.5 598.5,231.5C 598.5,270.167 598.5,308.833 598.5,347.5C 598.167,347.5 597.833,347.5 597.5,347.5C 597.5,333.5 597.5,319.5 597.5,305.5C 597.5,280.167 597.5,254.833 597.5,229.5C 611.833,229.5 626.167,229.5 640.5,229.5 Z"/></g>
<g><path style="opacity:1" fill="#01f5c3" d="M 1744.5,233.5 C 1760.46,232.562 1771.29,239.562 1777,254.5C 1780.22,270.573 1774.72,282.407 1760.5,290C 1751.29,291.558 1742.62,290.058 1734.5,285.5C 1732.33,282.5 1730.17,279.5 1728,276.5C 1725.93,267.096 1726.26,257.763 1729,248.5C 1732.74,241.924 1737.91,236.924 1744.5,233.5 Z"/></g>
<g><path style="opacity:1" fill="#1eb99e" d="M 1837.5,237.5 C 1839.12,241.575 1840.12,245.908 1840.5,250.5C 1838.93,249.319 1838.1,247.653 1838,245.5C 1837.5,242.854 1837.34,240.187 1837.5,237.5 Z"/></g>
<g><path style="opacity:0.802" fill="#4cf1ca" d="M 596.5,229.5 C 596.169,255.005 596.502,280.339 597.5,305.5C 597.5,319.5 597.5,333.5 597.5,347.5C 596.674,342.684 596.174,337.684 596,332.5C 595.169,297.998 595.336,263.664 596.5,229.5 Z"/></g>
<g><path style="opacity:0.73" fill="#7af5d6" d="M 303.5,260.5 C 299.229,257.899 295.563,254.566 292.5,250.5C 292.735,249.903 293.235,249.57 294,249.5C 299.03,251.562 302.197,255.229 303.5,260.5 Z"/></g>
<g><path style="opacity:0.537" fill="#93f8df" d="M 640.5,229.5 C 626.167,229.5 611.833,229.5 597.5,229.5C 597.5,254.833 597.5,280.167 597.5,305.5C 596.502,280.339 596.169,255.005 596.5,229.5C 611.167,228.167 625.833,228.167 640.5,229.5 Z"/></g>
<g><path style="opacity:1" fill="#2b8880" d="M 1708.5,241.5 C 1705.81,251.96 1704.81,262.627 1705.5,273.5C 1704.34,265.677 1704.18,257.677 1705,249.5C 1705.32,246.334 1706.49,243.667 1708.5,241.5 Z"/></g>
<g><path style="opacity:0.502" fill="#63f4d4" d="M 320.5,287.5 C 316.688,280.748 312.688,274.082 308.5,267.5C 309.15,267.196 309.817,266.863 310.5,266.5C 314.501,271.832 318.001,277.498 321,283.5C 321.765,285.066 321.598,286.399 320.5,287.5 Z"/></g>
<g><path style="opacity:1" fill="#1fb29a" d="M 1646.5,269.5 C 1646.87,274.911 1645.87,279.911 1643.5,284.5C 1643.98,279.273 1644.98,274.273 1646.5,269.5 Z"/></g>
<g><path style="opacity:1" fill="#22a692" d="M 1842.5,266.5 C 1843.22,266.918 1843.72,267.584 1844,268.5C 1845.24,276.464 1846.07,284.464 1846.5,292.5C 1844.38,284.084 1843.05,275.417 1842.5,266.5 Z"/></g>
<g><path style="opacity:0.441" fill="#2b7f7a" d="M 1859.5,280.5 C 1861.26,290.28 1862.26,300.28 1862.5,310.5C 1860.74,300.72 1859.74,290.72 1859.5,280.5 Z"/></g>
<g><path style="opacity:1" fill="#249c8c" d="M 1641.5,298.5 C 1641.8,302.79 1641.14,306.79 1639.5,310.5C 1639.2,306.21 1639.86,302.21 1641.5,298.5 Z"/></g>
<g><path style="opacity:1" fill="#22ac96" d="M 1779.5,306.5 C 1776.71,308.897 1773.38,310.564 1769.5,311.5C 1772.29,309.103 1775.62,307.436 1779.5,306.5 Z"/></g>
<g><path style="opacity:1" fill="#2c7e7a" d="M 1846.5,296.5 C 1847.12,296.611 1847.62,296.944 1848,297.5C 1849.42,323.153 1849.75,348.819 1849,374.5C 1848.77,375.737 1848.27,376.737 1847.5,377.5C 1848.99,350.476 1848.66,323.476 1846.5,296.5 Z"/></g>
<g><path style="opacity:1" fill="#1eb299" d="M 1639.5,313.5 C 1638.8,330.824 1638.46,348.158 1638.5,365.5C 1637.83,359.009 1637.5,352.342 1637.5,345.5C 1637.37,334.629 1638.03,323.962 1639.5,313.5 Z"/></g>
<g><path style="opacity:0.513" fill="#49f1ca" d="M 956.5,232.5 C 955.664,279.828 955.33,327.162 955.5,374.5C 954.883,374.611 954.383,374.944 954,375.5C 953.333,333.167 953.333,290.833 954,248.5C 954.249,242.936 955.082,237.602 956.5,232.5 Z"/></g>
<g><path style="opacity:0.327" fill="#2b7c78" d="M 1624.5,325.5 C 1624.67,340.837 1624.5,356.17 1624,371.5C 1623.62,372.056 1623.12,372.389 1622.5,372.5C 1623.14,356.705 1623.8,341.038 1624.5,325.5 Z"/></g>
<g><path style="opacity:1" fill="#2e7d7a" d="M 1759.5,363.5 C 1750.34,362.423 1741.17,361.423 1732,360.5C 1730.7,360.978 1729.53,361.645 1728.5,362.5C 1728.41,361.504 1728.75,360.671 1729.5,360C 1731.33,359.833 1733.17,359.667 1735,359.5C 1743.46,359.989 1751.62,361.322 1759.5,363.5 Z"/></g>
<g><path style="opacity:1" fill="#249e8e" d="M 1725.5,366.5 C 1725.01,394.695 1723.67,422.695 1721.5,450.5C 1721.64,422.287 1722.97,394.287 1725.5,366.5 Z"/></g>
<g><path style="opacity:1" fill="#25988a" d="M 1638.5,383.5 C 1640.31,391.288 1641.65,399.288 1642.5,407.5C 1641.11,405.123 1640.28,402.457 1640,399.5C 1639.43,394.166 1638.93,388.833 1638.5,383.5 Z"/></g>
<g><path style="opacity:1" fill="#03f1c0" d="M 1740.5,403.5 C 1742.05,409.862 1742.72,416.362 1742.5,423C 1742.04,433.831 1741.7,444.665 1741.5,455.5C 1739.67,472.732 1738.51,490.065 1738,507.5C 1737.8,509.256 1737.3,510.922 1736.5,512.5C 1735.7,512.043 1735.37,511.376 1735.5,510.5C 1735.35,478.48 1736.02,446.48 1737.5,414.5C 1737.17,409.456 1737.51,404.456 1738.5,399.5C 1739.36,400.766 1740.03,402.099 1740.5,403.5 Z"/></g>
<g><path style="opacity:1" fill="#1cb89d" d="M 1847.5,383.5 C 1847.1,393.041 1846.1,402.374 1844.5,411.5C 1844.65,401.927 1845.65,392.594 1847.5,383.5 Z"/></g>
<g><path style="opacity:1" fill="#299185" d="M 1785.5,411.5 C 1786.91,420.951 1786.25,430.285 1783.5,439.5C 1784.64,430.204 1785.3,420.871 1785.5,411.5 Z"/></g>
<g><path style="opacity:1" fill="#1fa893" d="M 1740.5,403.5 C 1741.97,404.347 1742.8,405.68 1743,407.5C 1743.79,423.694 1743.29,439.694 1741.5,455.5C 1741.7,444.665 1742.04,433.831 1742.5,423C 1742.72,416.362 1742.05,409.862 1740.5,403.5 Z"/></g>
<g><path style="opacity:1" fill="#298d83" d="M 1839.5,447.5 C 1838.78,452.84 1837.94,458.173 1837,463.5C 1836.72,464.416 1836.22,465.082 1835.5,465.5C 1836.22,460.16 1837.06,454.827 1838,449.5C 1838.28,448.584 1838.78,447.918 1839.5,447.5 Z"/></g>
<g><path style="opacity:0.306" fill="#c8fef0" d="M 598.5,464.5 C 598.5,508.5 598.5,552.5 598.5,596.5C 631.167,596.5 663.833,596.5 696.5,596.5C 685.679,597.495 674.679,597.828 663.5,597.5C 641.5,597.5 619.5,597.5 597.5,597.5C 597.5,564.5 597.5,531.5 597.5,498.5C 597.172,486.988 597.505,475.654 598.5,464.5 Z"/></g>
<g><path style="opacity:1" fill="#17c2a4" d="M 1737.5,414.5 C 1736.02,446.48 1735.35,478.48 1735.5,510.5C 1734,501.883 1733.34,493.049 1733.5,484C 1734.45,460.656 1735.78,437.49 1737.5,414.5 Z"/></g>
<g><path style="opacity:1" fill="#259789" d="M 1779.5,471.5 C 1779.62,477.069 1778.96,482.402 1777.5,487.5C 1777.53,481.949 1778.19,476.616 1779.5,471.5 Z"/></g>
<g><path style="opacity:1" fill="#23a390" d="M 1661.5,484.5 C 1663.9,487.992 1665.57,491.992 1666.5,496.5C 1664.08,492.936 1662.41,488.936 1661.5,484.5 Z"/></g>
<g><path style="opacity:1" fill="#1bc0a2" d="M 1721.5,464.5 C 1721.67,474.839 1721.5,485.172 1721,495.5C 1710.86,496.26 1700.69,497.26 1690.5,498.5C 1691.69,497.223 1693.36,496.556 1695.5,496.5C 1703.81,495.502 1712.15,494.835 1720.5,494.5C 1720.17,484.319 1720.51,474.319 1721.5,464.5 Z"/></g>
<g><path style="opacity:0.475" fill="#46f9cb" d="M 989.5,459.5 C 978.346,460.495 967.012,460.828 955.5,460.5C 955.5,505.5 955.5,550.5 955.5,595.5C 954.686,593.369 954.186,591.036 954,588.5C 952.728,545.506 952.395,502.506 953,459.5C 965.265,458.17 977.431,458.17 989.5,459.5 Z"/></g>
<g><path style="opacity:1" fill="#279689" d="M 1780.5,498.5 C 1786.18,499.192 1791.84,500.025 1797.5,501C 1798.06,501.383 1798.39,501.883 1798.5,502.5C 1792.23,501.796 1786.23,500.462 1780.5,498.5 Z"/></g>
<g><path style="opacity:0.506" fill="#a0fae3" d="M 597.5,498.5 C 597.5,531.5 597.5,564.5 597.5,597.5C 619.5,597.5 641.5,597.5 663.5,597.5C 641.34,598.497 619.006,598.831 596.5,598.5C 596.168,564.996 596.502,531.662 597.5,498.5 Z"/></g>
<g><path style="opacity:0.192" fill="#66f8d3" d="M 957.5,656.5 C 958.468,658.607 958.802,660.941 958.5,663.5C 933.141,663.796 907.808,663.463 882.5,662.5C 880.369,661.686 878.036,661.186 875.5,661C 902.498,660.5 929.498,660.333 956.5,660.5C 956.232,658.901 956.566,657.568 957.5,656.5 Z"/></g>
</svg>
